<?xml version="1.0" encoding="UTF-8"?>
<svg width="200px" height="150px" viewBox="0 0 200 150" version="1.1" xmlns="http://www.w3.org/2000/svg" xmlns:xlink="http://www.w3.org/1999/xlink">
    <title>Изображение недоступно</title>
    <g stroke="none" stroke-width="1" fill="none" fill-rule="evenodd">
        <rect fill="#F3F4F6" x="0" y="0" width="200" height="150"></rect>
        <g transform="translate(70.000000, 54.000000)" fill="#9CA3AF" fill-rule="nonzero">
            <path d="M30,0 C34.418278,0 38,3.581722 38,8 C38,12.418278 34.418278,16 30,16 C25.581722,16 22,12.418278 22,8 C22,3.581722 25.581722,0 30,0 Z M56.8601729,41.9528995 C57.4233159,42.5160426 57.4233159,43.4339574 56.8601729,43.9971005 C56.2970298,44.5602436 55.3791149,44.5602436 54.8159719,43.9971005 L30,19.1811286 L5.18402808,43.9971005 C4.62088505,44.5602436 3.70297015,44.5602436 3.13982712,43.9971005 C2.57668409,43.4339574 2.57668409,42.5160426 3.13982712,41.9528995 L28.9777991,16.1349277 C28.9818458,16.130881 28.9859272,16.1268606 28.9900433,16.1228667 C29.2961387,15.8301461 29.6378387,15.6791601 30,15.6791601 C30.3622283,15.6791601 30.7039848,15.8301923 31.0101157,16.1230231 C31.0141935,16.1269788 31.0182397,16.1309608 31.0222542,16.1349693 L56.8601729,41.9528995 Z M60,8 C60,3.581722 56.418278,0 52,0 C47.581722,0 44,3.581722 44,8 C44,12.418278 47.581722,16 52,16 C56.418278,16 60,12.418278 60,8 Z M8,0 C12.418278,0 16,3.581722 16,8 C16,12.418278 12.418278,16 8,16 C3.581722,16 0,12.418278 0,8 C0,3.581722 3.581722,0 8,0 Z"></path>
        </g>
        <text font-family="sans-serif" font-size="14" font-weight="normal" fill="#4B5563">
            <tspan x="42" y="113">Изображение недоступно</tspan>
        </text>
    </g>
</svg>